<svg version="1.1" id="Layer_1" xmlns:x="ns_extend;" xmlns:i="ns_ai;" xmlns:graph="ns_graphs;" xmlns="http://www.w3.org/2000/svg" xmlns:xlink="http://www.w3.org/1999/xlink" x="0px" y="0px" viewBox="0 0 63.6 49.6" style="enable-background:new 0 0 63.6 49.6;" xml:space="preserve">
 <style type="text/css">
  .st0{fill:#1E3D88;}
	.st1{fill:#91D9D4;}
	.st2{fill:#B6E5E2;}
	.st3{fill:#48BFB8;}
 </style>
 <metadata>
  <sfw xmlns="ns_sfw;">
   <slices>
   </slices>
   <sliceSourceBounds bottomLeftOrigin="true" height="49.6" width="63.6" x="-134.6" y="-199">
   </sliceSourceBounds>
  </sfw>
 </metadata>
 <g>
  <g>
   <path class="st0" d="M25.1,24.3c0,2.8,3,5.1,6.7,5.1c3.7,0,6.7-2.3,6.7-5.1c0-2.8-3-5.1-6.7-5.1C28.1,19.3,25.1,21.5,25.1,24.3">
   </path>
   <path class="st0" d="M22.3,39.5c0,4,4.3,7.2,9.5,7.2c5.3,0,9.5-3.2,9.5-7.2c0-4-4.3-7.2-9.5-7.2C26.6,32.3,22.3,35.5,22.3,39.5">
   </path>
   <path class="st0" d="M28.1,13.5c0,1.6,1.7,2.9,3.8,2.9c2.1,0,3.8-1.3,3.8-2.9c0-1.6-1.7-2.9-3.8-2.9
			C29.8,10.6,28.1,11.9,28.1,13.5">
   </path>
   <path class="st0" d="M29.7,6.1c0,0.9,1,1.6,2.1,1.6C33,7.7,34,7,34,6.1c0-0.9-1-1.6-2.1-1.6C30.7,4.5,29.7,5.2,29.7,6.1">
   </path>
   <path class="st0" d="M30.8,0.8c0,0.4,0.5,0.8,1.1,0.8c0.6,0,1.1-0.4,1.1-0.8c0-0.4-0.5-0.8-1.1-0.8C31.3,0,30.8,0.4,30.8,0.8">
   </path>
   <path class="st1" d="M52.3,26.7c1,2-0.2,3.6-2.7,3.6c-2.5,0-7.5-2.5-8.5-4.5c-1-2,0.2-3.6,2.7-3.6C46.4,22.2,51.3,24.7,52.3,26.7">
   </path>
   <path class="st2" d="M44.8,14c0.7,1.3-0.1,2.3-1.8,2.3c-1.6,0-4.9-1.7-5.5-2.9c-0.7-1.3,0.1-2.3,1.8-2.3
			C40.9,11.1,44.1,12.7,44.8,14">
   </path>
   <path class="st3" d="M63.2,44.8c1.4,3.3-1.3,5.3-6,4.6c-4.7-0.8-9.6-4.1-11-7.4c-1.4-3.3,1.3-5.3,6-4.6
			C56.9,38.2,61.8,41.5,63.2,44.8">
   </path>
   <path class="st1" d="M11.3,26.7c-1,2,0.2,3.6,2.7,3.6c2.5,0,7.5-2.5,8.5-4.5c1-2-0.2-3.6-2.7-3.6C17.2,22.2,12.3,24.7,11.3,26.7">
   </path>
   <path class="st2" d="M18.8,14c-0.7,1.3,0.1,2.3,1.8,2.3c1.6,0,4.9-1.7,5.5-2.9c0.7-1.3-0.1-2.3-1.8-2.3
			C22.6,11.1,19.4,12.7,18.8,14">
   </path>
   <path class="st3" d="M0.4,44.8c-1.4,3.3,1.3,5.3,6,4.6c4.7-0.8,9.6-4.1,11-7.4c1.4-3.3-1.3-5.3-6-4.6C6.7,38.2,1.7,41.5,0.4,44.8">
   </path>
  </g>
 </g>
</svg>